<svg xmlns="http://www.w3.org/2000/svg" xmlns:xlink="http://www.w3.org/1999/xlink" zoomAndPan="magnify" viewBox="530 430 540 540" preserveAspectRatio="xMidYMid meet" version="1.0"><defs><g/><clipPath id="303dbdce27"><rect x="0" width="386" y="0" height="833"/></clipPath></defs><g transform="matrix(1, 0, 0, 1, 536, 282)"><g clip-path="url(#303dbdce27)"><g fill="#000000" fill-opacity="1"><g transform="translate(3.459845, 673.52886)"><g><path d="M 288.375 -174.921875 C 288.375 -160.859375 285.707031 -147.519531 280.375 -134.90625 C 275.039062 -122.300781 267.644531 -111.210938 258.1875 -101.640625 C 248.726562 -92.066406 237.695312 -84.550781 225.09375 -79.09375 C 212.488281 -73.632812 198.914062 -70.90625 184.375 -70.90625 C 170.070312 -70.90625 156.613281 -73.632812 144 -79.09375 C 131.394531 -84.550781 120.300781 -92.066406 110.71875 -101.640625 C 101.144531 -111.210938 93.691406 -122.300781 88.359375 -134.90625 C 83.023438 -147.519531 80.359375 -160.859375 80.359375 -174.921875 C 80.359375 -189.222656 83.023438 -202.613281 88.359375 -215.09375 C 93.691406 -227.582031 101.144531 -238.550781 110.71875 -248 C 120.300781 -257.457031 131.394531 -264.910156 144 -270.359375 C 156.613281 -275.816406 170.070312 -278.546875 184.375 -278.546875 C 189.945312 -278.546875 195.273438 -278.300781 200.359375 -277.8125 C 205.453125 -277.332031 210.304688 -276.125 214.921875 -274.1875 L 214.921875 -204 C 208.609375 -209.820312 201.453125 -213.335938 193.453125 -214.546875 C 185.453125 -215.765625 177.753906 -214.859375 170.359375 -211.828125 C 162.972656 -208.796875 156.796875 -204.128906 151.828125 -197.828125 C 146.859375 -191.523438 144.375 -183.890625 144.375 -174.921875 C 144.851562 -164.242188 148.664062 -155.023438 155.8125 -147.265625 C 162.96875 -139.515625 172.488281 -135.640625 184.375 -135.640625 C 196.25 -135.640625 205.757812 -139.820312 212.90625 -148.1875 C 220.0625 -156.550781 223.640625 -166.304688 223.640625 -177.453125 L 223.640625 -360.015625 C 223.640625 -380.128906 227.09375 -399.457031 234 -418 C 240.914062 -436.550781 250.554688 -453.523438 262.921875 -468.921875 C 275.285156 -484.316406 289.769531 -497.46875 306.375 -508.375 C 322.976562 -519.289062 341.097656 -527.050781 360.734375 -531.65625 L 360.734375 -464.375 C 346.671875 -459.039062 334.1875 -451.222656 323.28125 -440.921875 C 312.375 -430.617188 303.828125 -418.554688 297.640625 -404.734375 C 291.460938 -390.921875 288.375 -376.015625 288.375 -360.015625 Z M 184.375 -351.28125 C 189.945312 -351.28125 195.273438 -351.097656 200.359375 -350.734375 C 205.453125 -350.367188 210.304688 -349.582031 214.921875 -348.375 L 214.921875 -282.921875 C 210.304688 -284.128906 205.453125 -285.21875 200.359375 -286.1875 C 195.273438 -287.15625 189.945312 -287.640625 184.375 -287.640625 C 169.09375 -287.640625 154.601562 -284.671875 140.90625 -278.734375 C 127.21875 -272.796875 115.21875 -264.613281 104.90625 -254.1875 C 94.601562 -243.757812 86.484375 -231.757812 80.546875 -218.1875 C 74.609375 -204.613281 71.640625 -190.191406 71.640625 -174.921875 C 71.640625 -159.640625 74.546875 -145.210938 80.359375 -131.640625 C 86.179688 -118.066406 94.304688 -106.066406 104.734375 -95.640625 C 115.160156 -85.210938 127.160156 -77.03125 140.734375 -71.09375 C 154.304688 -65.15625 168.851562 -62.1875 184.375 -62.1875 C 199.882812 -62.1875 214.425781 -65.15625 228 -71.09375 C 241.582031 -77.03125 253.582031 -85.210938 264 -95.640625 C 274.425781 -106.066406 282.546875 -118.066406 288.359375 -131.640625 C 294.179688 -145.210938 297.09375 -159.640625 297.09375 -174.921875 L 297.09375 -360.015625 C 297.09375 -373.828125 299.820312 -387.035156 305.28125 -399.640625 C 310.738281 -412.253906 318.253906 -423.410156 327.828125 -433.109375 C 337.398438 -442.804688 348.367188 -450.195312 360.734375 -455.28125 L 360.734375 -174.921875 C 360.734375 -150.671875 356.1875 -127.878906 347.09375 -106.546875 C 338.007812 -85.210938 325.34375 -66.421875 309.09375 -50.171875 C 292.851562 -33.929688 274.125 -21.265625 252.90625 -12.171875 C 231.695312 -3.085938 208.851562 1.453125 184.375 1.453125 C 160.125 1.453125 137.269531 -3.085938 115.8125 -12.171875 C 94.363281 -21.265625 75.515625 -33.929688 59.265625 -50.171875 C 43.023438 -66.421875 30.296875 -85.210938 21.078125 -106.546875 C 11.867188 -127.878906 7.265625 -150.671875 7.265625 -174.921875 C 7.265625 -198.671875 11.867188 -221.148438 21.078125 -242.359375 C 30.296875 -263.578125 43.023438 -282.367188 59.265625 -298.734375 C 75.515625 -315.097656 94.363281 -327.945312 115.8125 -337.28125 C 137.269531 -346.613281 160.125 -351.28125 184.375 -351.28125 Z M 184.375 -351.28125 "/></g></g></g></g></g><path stroke-linecap="round" transform="matrix(0.75, 0, 0, 0.75, 684.421726, 733.019341)" fill="none" stroke-linejoin="miter" d="M 62.000203 62.000259 L 496.974199 62.000259 " stroke="#ff1616" stroke-width="124" stroke-opacity="1" stroke-miterlimit="4"/><g fill="#ffffff" fill-opacity="1"><g transform="translate(756.586954, 797.372671)"><g><path d="M 21.40625 -0.03125 C 21.40625 -1.28125 21.171875 -2.492188 20.703125 -3.671875 C 20.234375 -4.847656 19.582031 -5.90625 18.75 -6.84375 C 17.914062 -7.789062 16.945312 -8.535156 15.84375 -9.078125 C 14.738281 -9.628906 13.5625 -9.90625 12.3125 -9.90625 L 10.28125 -9.90625 L 10.28125 -0.03125 L 0.75 -0.03125 L 0.75 -24.15625 C 0.75 -25.894531 1.085938 -27.53125 1.765625 -29.0625 C 2.453125 -30.59375 3.394531 -31.941406 4.59375 -33.109375 C 5.789062 -34.285156 7.164062 -35.207031 8.71875 -35.875 C 10.269531 -36.539062 11.910156 -36.875 13.640625 -36.875 L 18.09375 -36.875 C 19.863281 -36.875 21.523438 -36.539062 23.078125 -35.875 C 24.628906 -35.207031 25.992188 -34.28125 27.171875 -33.09375 C 28.347656 -31.90625 29.269531 -30.53125 29.9375 -28.96875 C 30.601562 -27.414062 30.9375 -25.753906 30.9375 -23.984375 L 30.9375 -21.828125 C 30.9375 -20.910156 30.773438 -19.945312 30.453125 -18.9375 C 30.140625 -17.925781 29.703125 -16.960938 29.140625 -16.046875 C 28.585938 -15.128906 27.925781 -14.332031 27.15625 -13.65625 C 26.394531 -12.976562 25.5625 -12.503906 24.65625 -12.234375 C 25.757812 -11.648438 26.710938 -10.90625 27.515625 -10 C 28.316406 -9.09375 28.96875 -8.082031 29.46875 -6.96875 C 29.96875 -5.863281 30.335938 -4.710938 30.578125 -3.515625 C 30.816406 -2.328125 30.9375 -1.164062 30.9375 -0.03125 Z M 21.453125 -24.03125 C 21.453125 -24.644531 21.300781 -25.210938 21 -25.734375 C 20.695312 -26.253906 20.296875 -26.664062 19.796875 -26.96875 C 19.296875 -27.28125 18.726562 -27.4375 18.09375 -27.4375 L 13.640625 -27.4375 C 13.023438 -27.4375 12.457031 -27.28125 11.9375 -26.96875 C 11.425781 -26.664062 11.015625 -26.253906 10.703125 -25.734375 C 10.390625 -25.210938 10.234375 -24.644531 10.234375 -24.03125 C 10.234375 -23.414062 10.238281 -22.722656 10.25 -21.953125 C 10.257812 -21.179688 10.265625 -20.410156 10.265625 -19.640625 C 10.273438 -18.878906 10.28125 -18.179688 10.28125 -17.546875 L 18.09375 -17.546875 C 18.726562 -17.546875 19.296875 -17.703125 19.796875 -18.015625 C 20.296875 -18.335938 20.695312 -18.753906 21 -19.265625 C 21.300781 -19.785156 21.453125 -20.347656 21.453125 -20.953125 Z M 21.453125 -24.03125 "/></g></g></g><g fill="#ffffff" fill-opacity="1"><g transform="translate(829.923698, 797.372671)"><g><path d="M 26.65625 0.03125 L 13.71875 0.03125 C 11.976562 0.03125 10.34375 -0.300781 8.8125 -0.96875 C 7.28125 -1.644531 5.925781 -2.566406 4.75 -3.734375 C 3.582031 -4.910156 2.664062 -6.265625 2 -7.796875 C 1.332031 -9.335938 1 -10.96875 1 -12.6875 L 1 -23.90625 C 1 -25.65625 1.332031 -27.300781 2 -28.84375 C 2.664062 -30.394531 3.582031 -31.753906 4.75 -32.921875 C 5.925781 -34.085938 7.28125 -35.003906 8.8125 -35.671875 C 10.34375 -36.335938 11.976562 -36.671875 13.71875 -36.671875 L 26.65625 -36.671875 L 26.65625 -27.484375 L 13.71875 -27.484375 C 13.101562 -27.484375 12.546875 -27.320312 12.046875 -27 C 11.546875 -26.6875 11.140625 -26.269531 10.828125 -25.75 C 10.515625 -25.238281 10.359375 -24.675781 10.359375 -24.0625 L 10.359375 -22.578125 L 26.65625 -22.578125 L 26.65625 -13.875 L 10.359375 -13.875 L 10.359375 -12.640625 C 10.359375 -12.035156 10.515625 -11.460938 10.828125 -10.921875 C 11.140625 -10.378906 11.546875 -9.9375 12.046875 -9.59375 C 12.546875 -9.257812 13.101562 -9.09375 13.71875 -9.09375 L 26.65625 -9.09375 Z M 26.65625 0.03125 "/></g></g></g><g fill="#ffffff" fill-opacity="1"><g transform="translate(899.355146, 797.372671)"><g><path d="M 22.234375 0 L 22.234375 -8.53125 L 10.359375 -8.53125 L 10.359375 0 L 0.796875 0 L 0.796875 -24 C 0.796875 -25.789062 1.132812 -27.460938 1.8125 -29.015625 C 2.488281 -30.578125 3.421875 -31.953125 4.609375 -33.140625 C 5.804688 -34.335938 7.1875 -35.269531 8.75 -35.9375 C 10.3125 -36.613281 11.976562 -36.953125 13.75 -36.953125 L 18.84375 -36.953125 C 20.613281 -36.953125 22.28125 -36.613281 23.84375 -35.9375 C 25.414062 -35.269531 26.796875 -34.335938 27.984375 -33.140625 C 29.179688 -31.953125 30.125 -30.578125 30.8125 -29.015625 C 31.5 -27.460938 31.84375 -25.789062 31.84375 -24 L 31.84375 0 Z M 13.75 -27.453125 C 13.125 -27.453125 12.554688 -27.296875 12.046875 -26.984375 C 11.546875 -26.679688 11.140625 -26.265625 10.828125 -25.734375 C 10.515625 -25.210938 10.359375 -24.632812 10.359375 -24 L 10.359375 -18.21875 L 22.234375 -18.21875 L 22.234375 -24 C 22.234375 -24.632812 22.082031 -25.210938 21.78125 -25.734375 C 21.476562 -26.265625 21.070312 -26.679688 20.5625 -26.984375 C 20.050781 -27.296875 19.476562 -27.453125 18.84375 -27.453125 Z M 13.75 -27.453125 "/></g></g></g><g fill="#ffffff" fill-opacity="1"><g transform="translate(973.993643, 797.372671)"><g><path d="M 26.984375 0 L 27.578125 -20.296875 L 22.578125 -11.984375 C 21.796875 -10.847656 20.925781 -10.09375 19.96875 -9.71875 C 19.019531 -9.34375 18.078125 -9.351562 17.140625 -9.75 C 16.210938 -10.144531 15.375 -10.925781 14.625 -12.09375 L 9.71875 -19.671875 L 10.3125 0 L 0.59375 0 L 0.59375 -29.84375 C 0.59375 -31.3125 0.8125 -32.535156 1.25 -33.515625 C 1.6875 -34.503906 2.257812 -35.28125 2.96875 -35.84375 C 3.675781 -36.414062 4.453125 -36.789062 5.296875 -36.96875 C 6.148438 -37.15625 7 -37.164062 7.84375 -37 C 8.6875 -36.832031 9.46875 -36.507812 10.1875 -36.03125 C 10.90625 -35.550781 11.484375 -34.945312 11.921875 -34.21875 L 18.625 -22.5 L 25.828125 -34.21875 C 26.265625 -34.945312 26.828125 -35.550781 27.515625 -36.03125 C 28.210938 -36.507812 28.96875 -36.832031 29.78125 -37 C 30.601562 -37.164062 31.414062 -37.15625 32.21875 -36.96875 C 33.03125 -36.789062 33.769531 -36.414062 34.4375 -35.84375 C 35.113281 -35.28125 35.65625 -34.503906 36.0625 -33.515625 C 36.46875 -32.535156 36.671875 -31.3125 36.671875 -29.84375 L 36.703125 0 Z M 26.984375 0 "/></g></g></g></svg>