<svg xmlns="http://www.w3.org/2000/svg" xmlns:xlink="http://www.w3.org/1999/xlink" width="2000" zoomAndPan="magnify" viewBox="0 0 1500 1499.999933" height="2000" preserveAspectRatio="xMidYMid meet" version="1.0"><defs><g/><clipPath id="75f288f164"><rect x="0" width="512" y="0" height="713"/></clipPath><clipPath id="c6cf7b3878"><path d="M 463.292969 647.21875 L 1065.191406 647.21875 L 1065.191406 852.78125 L 463.292969 852.78125 Z M 463.292969 647.21875 " clip-rule="nonzero"/></clipPath><clipPath id="803c1de0f0"><path d="M 0.292969 0.21875 L 602.191406 0.21875 L 602.191406 205.78125 L 0.292969 205.78125 Z M 0.292969 0.21875 " clip-rule="nonzero"/></clipPath><clipPath id="cda6dc208a"><rect x="0" width="603" y="0" height="206"/></clipPath><clipPath id="aeadad1c87"><rect x="0" width="908" y="0" height="190"/></clipPath></defs><g transform="matrix(1, 0, 0, 1, 494, 410)"><g clip-path="url(#75f288f164)"><g fill="#000000" fill-opacity="1"><g transform="translate(2.828116, 556.113832)"><g><path d="M 21.765625 0 L 21.765625 -21.765625 C 36.273438 -22.148438 48.015625 -23.203125 56.984375 -24.921875 C 65.960938 -26.640625 72.929688 -29.882812 77.890625 -34.65625 C 82.859375 -39.425781 86.203125 -45.914062 87.921875 -54.125 C 89.640625 -62.332031 90.5 -73.3125 90.5 -87.0625 L 90.5 -353.984375 C 90.5 -367.347656 89.832031 -378.132812 88.5 -386.34375 C 87.164062 -394.5625 84.492188 -401.054688 80.484375 -405.828125 C 76.472656 -410.597656 70.644531 -413.84375 63 -415.5625 C 55.363281 -417.28125 45.4375 -418.519531 33.21875 -419.28125 L 33.21875 -441.046875 L 234.28125 -441.046875 C 268.644531 -441.046875 300.429688 -435.316406 329.640625 -423.859375 C 358.859375 -412.410156 384.0625 -396.566406 405.25 -376.328125 C 426.445312 -356.085938 442.960938 -332.03125 454.796875 -304.15625 C 466.640625 -276.28125 472.5625 -245.921875 472.5625 -213.078125 C 472.5625 -181.765625 467.019531 -153.03125 455.9375 -126.875 C 444.863281 -100.71875 429.300781 -78.28125 409.25 -59.5625 C 389.207031 -40.851562 365.25 -26.25 337.375 -15.75 C 309.5 -5.25 278.953125 0 245.734375 0 Z M 160.390625 -412.984375 C 153.890625 -412.984375 150.640625 -409.738281 150.640625 -403.25 L 150.640625 -93.359375 C 150.640625 -49.828125 179.09375 -28.0625 236 -28.0625 C 288.3125 -28.0625 328.40625 -43.625 356.28125 -74.75 C 384.15625 -105.875 398.09375 -151.601562 398.09375 -211.9375 C 398.09375 -243.632812 394.273438 -271.890625 386.640625 -296.703125 C 379.003906 -321.523438 368.023438 -342.53125 353.703125 -359.71875 C 339.378906 -376.90625 322.097656 -390.078125 301.859375 -399.234375 C 281.617188 -408.398438 258.707031 -412.984375 233.125 -412.984375 Z M 160.390625 -412.984375 "/></g></g></g></g></g><g clip-path="url(#c6cf7b3878)"><g transform="matrix(1, 0, 0, 1, 463, 647)"><g clip-path="url(#cda6dc208a)"><g clip-path="url(#803c1de0f0)"><path fill="#ffffff" d="M 0.292969 0.21875 L 602.53125 0.21875 L 602.53125 205.78125 L 0.292969 205.78125 Z M 0.292969 0.21875 " fill-opacity="1" fill-rule="nonzero"/></g></g></g></g><g transform="matrix(1, 0, 0, 1, 296, 654)"><g clip-path="url(#aeadad1c87)"><g fill="#000000" fill-opacity="1"><g transform="translate(2.546883, 146.999911)"><g><path d="M 100 -87.6875 C 100 -79.582031 97.566406 -72.84375 92.703125 -67.46875 C 87.847656 -62.101562 80.097656 -58.507812 69.453125 -56.6875 L 103.046875 -16.265625 C 105.785156 -12.921875 108.800781 -10.515625 112.09375 -9.046875 C 115.382812 -7.578125 119.3125 -6.488281 123.875 -5.78125 L 123.875 0 L 94.53125 0 L 57.296875 -47.71875 C 55.984375 -49.445312 54.742188 -50.816406 53.578125 -51.828125 C 52.410156 -52.835938 51.191406 -53.617188 49.921875 -54.171875 C 48.660156 -54.734375 47.191406 -55.085938 45.515625 -55.234375 C 43.847656 -55.390625 41.847656 -55.46875 39.515625 -55.46875 L 39.515625 -23.859375 C 39.515625 -20.109375 39.742188 -17.039062 40.203125 -14.65625 C 40.660156 -12.28125 41.625 -10.429688 43.09375 -9.109375 C 44.5625 -7.796875 46.6875 -6.910156 49.46875 -6.453125 C 52.257812 -6.003906 55.929688 -5.78125 60.484375 -5.78125 L 60.484375 0 L 6.84375 0 L 6.84375 -5.78125 C 10.382812 -5.875 13.242188 -6.175781 15.421875 -6.6875 C 17.597656 -7.195312 19.296875 -8.054688 20.515625 -9.265625 C 21.734375 -10.484375 22.546875 -12.207031 22.953125 -14.4375 C 23.359375 -16.664062 23.5625 -19.554688 23.5625 -23.109375 L 23.5625 -93.921875 C 23.5625 -97.472656 23.382812 -100.335938 23.03125 -102.515625 C 22.675781 -104.691406 21.960938 -106.410156 20.890625 -107.671875 C 19.828125 -108.941406 18.28125 -109.804688 16.25 -110.265625 C 14.226562 -110.722656 11.597656 -111.050781 8.359375 -111.25 L 8.359375 -117.03125 L 56.078125 -117.03125 C 70.066406 -117.03125 80.882812 -114.445312 88.53125 -109.28125 C 96.175781 -104.113281 100 -96.914062 100 -87.6875 Z M 39.515625 -63.078125 L 50.3125 -63.078125 C 60.4375 -63.078125 67.957031 -64.925781 72.875 -68.625 C 77.789062 -72.320312 80.25 -78.425781 80.25 -86.9375 C 80.25 -95.144531 78.296875 -101.019531 74.390625 -104.5625 C 70.492188 -108.113281 64.390625 -109.890625 56.078125 -109.890625 L 42.09375 -109.890625 C 40.375 -109.890625 39.515625 -109.023438 39.515625 -107.296875 Z M 39.515625 -63.078125 "/></g></g></g><g fill="#000000" fill-opacity="1"><g transform="translate(122.298397, 146.999911)"><g><path d="M 39.515625 -64.296875 C 44.984375 -64.296875 49.566406 -64.625 53.265625 -65.28125 C 56.960938 -65.9375 59.898438 -66.972656 62.078125 -68.390625 C 64.265625 -69.804688 65.835938 -71.628906 66.796875 -73.859375 C 67.753906 -76.085938 68.234375 -78.722656 68.234375 -81.765625 L 73.5625 -81.765625 L 73.5625 -40.28125 L 68.234375 -40.28125 C 68.234375 -43.3125 67.800781 -45.941406 66.9375 -48.171875 C 66.082031 -50.398438 64.566406 -52.25 62.390625 -53.71875 C 60.210938 -55.195312 57.273438 -56.3125 53.578125 -57.0625 C 49.878906 -57.820312 45.191406 -58.203125 39.515625 -58.203125 L 39.515625 -23.859375 C 39.515625 -20.515625 39.921875 -17.753906 40.734375 -15.578125 C 41.546875 -13.398438 42.9375 -11.625 44.90625 -10.25 C 46.882812 -8.882812 49.492188 -7.921875 52.734375 -7.359375 C 55.984375 -6.804688 59.988281 -6.53125 64.75 -6.53125 C 70.113281 -6.53125 74.671875 -6.910156 78.421875 -7.671875 C 82.171875 -8.429688 85.3125 -9.722656 87.84375 -11.546875 C 90.375 -13.367188 92.398438 -15.773438 93.921875 -18.765625 C 95.441406 -21.753906 96.707031 -25.476562 97.71875 -29.9375 L 103.5 -29.9375 L 101.21875 0 L 6.84375 0 L 6.84375 -5.78125 C 10.382812 -5.875 13.242188 -6.175781 15.421875 -6.6875 C 17.597656 -7.195312 19.296875 -8.054688 20.515625 -9.265625 C 21.734375 -10.484375 22.546875 -12.207031 22.953125 -14.4375 C 23.359375 -16.664062 23.5625 -19.554688 23.5625 -23.109375 L 23.5625 -93.921875 C 23.5625 -97.472656 23.382812 -100.335938 23.03125 -102.515625 C 22.675781 -104.691406 21.960938 -106.410156 20.890625 -107.671875 C 19.828125 -108.941406 18.28125 -109.804688 16.25 -110.265625 C 14.226562 -110.722656 11.597656 -111.050781 8.359375 -111.25 L 8.359375 -117.03125 L 96.203125 -117.03125 L 97.578125 -90.28125 L 92.25 -90.28125 C 91.644531 -94.332031 90.65625 -97.648438 89.28125 -100.234375 C 87.914062 -102.816406 86.039062 -104.867188 83.65625 -106.390625 C 81.28125 -107.910156 78.269531 -108.972656 74.625 -109.578125 C 70.976562 -110.191406 66.570312 -110.5 61.40625 -110.5 L 42.09375 -110.5 C 40.375 -110.5 39.515625 -109.632812 39.515625 -107.90625 Z M 39.515625 -64.296875 "/></g></g></g><g fill="#000000" fill-opacity="1"><g transform="translate(232.627855, 146.999911)"><g><path d="M 74.171875 -42.40625 L 33.59375 -42.40625 C 31.863281 -38.25 30.390625 -34.570312 29.171875 -31.375 C 27.960938 -28.1875 26.976562 -25.425781 26.21875 -23.09375 C 25.457031 -20.769531 24.925781 -18.796875 24.625 -17.171875 C 24.320312 -15.554688 24.171875 -14.238281 24.171875 -13.21875 C 24.171875 -10.382812 25.082031 -8.4375 26.90625 -7.375 C 28.726562 -6.3125 31.765625 -5.78125 36.015625 -5.78125 L 36.015625 0 L -0.90625 0 L -0.90625 -5.78125 C 1.414062 -6.082031 3.410156 -6.484375 5.078125 -6.984375 C 6.753906 -7.492188 8.226562 -8.203125 9.5 -9.109375 C 10.769531 -10.023438 11.882812 -11.21875 12.84375 -12.6875 C 13.800781 -14.15625 14.738281 -15.957031 15.65625 -18.09375 L 55.171875 -117.03125 L 61.703125 -117.03125 L 96.203125 -31.3125 C 98.535156 -25.632812 100.5625 -21.097656 102.28125 -17.703125 C 104.007812 -14.304688 105.679688 -11.75 107.296875 -10.03125 C 108.921875 -8.3125 110.671875 -7.195312 112.546875 -6.6875 C 114.421875 -6.175781 116.675781 -5.921875 119.3125 -5.921875 L 119.3125 0 L 69.765625 0 L 69.765625 -5.921875 C 75.128906 -5.921875 78.820312 -6.425781 80.84375 -7.4375 C 82.875 -8.457031 83.890625 -10.132812 83.890625 -12.46875 C 83.890625 -13.476562 83.835938 -14.410156 83.734375 -15.265625 C 83.640625 -16.128906 83.460938 -17.066406 83.203125 -18.078125 C 82.953125 -19.097656 82.597656 -20.238281 82.140625 -21.5 C 81.691406 -22.769531 81.113281 -24.265625 80.40625 -25.984375 Z M 36.625 -50 L 71.28125 -50 L 54.40625 -94.84375 Z M 36.625 -50 "/></g></g></g><g fill="#000000" fill-opacity="1"><g transform="translate(349.947867, 146.999911)"><g><path d="M 83.59375 -27.203125 L 123.109375 -117.03125 L 157.15625 -117.03125 L 157.15625 -111.25 C 153.90625 -111.144531 151.289062 -110.738281 149.3125 -110.03125 C 147.34375 -109.320312 145.828125 -108.128906 144.765625 -106.453125 C 143.703125 -104.785156 142.992188 -102.484375 142.640625 -99.546875 C 142.285156 -96.609375 142.109375 -92.859375 142.109375 -88.296875 L 142.109375 -28.71875 C 142.109375 -23.65625 142.3125 -19.65625 142.71875 -16.71875 C 143.125 -13.78125 143.90625 -11.5 145.0625 -9.875 C 146.226562 -8.257812 147.898438 -7.195312 150.078125 -6.6875 C 152.265625 -6.175781 155.128906 -5.875 158.671875 -5.78125 L 158.671875 0 L 109.421875 0 L 109.421875 -5.78125 C 112.972656 -5.875 115.835938 -6.195312 118.015625 -6.75 C 120.191406 -7.3125 121.890625 -8.351562 123.109375 -9.875 C 124.328125 -11.394531 125.132812 -13.546875 125.53125 -16.328125 C 125.9375 -19.117188 126.140625 -22.894531 126.140625 -27.65625 L 126.140625 -98.1875 L 124.625 -98.1875 L 80.25 1.515625 L 76.90625 1.515625 L 33.28125 -98.1875 L 32.671875 -98.1875 L 32.671875 -28.71875 C 32.671875 -23.65625 32.875 -19.65625 33.28125 -16.71875 C 33.6875 -13.78125 34.472656 -11.5 35.640625 -9.875 C 36.804688 -8.257812 38.476562 -7.195312 40.65625 -6.6875 C 42.832031 -6.175781 45.695312 -5.875 49.25 -5.78125 L 49.25 0 L 6.84375 0 L 6.84375 -5.78125 C 10.382812 -5.875 13.242188 -6.195312 15.421875 -6.75 C 17.597656 -7.3125 19.296875 -8.351562 20.515625 -9.875 C 21.734375 -11.394531 22.546875 -13.546875 22.953125 -16.328125 C 23.359375 -19.117188 23.5625 -22.894531 23.5625 -27.65625 L 23.5625 -89.359375 C 23.5625 -93.617188 23.382812 -97.140625 23.03125 -99.921875 C 22.675781 -102.710938 21.960938 -104.914062 20.890625 -106.53125 C 19.828125 -108.15625 18.28125 -109.296875 16.25 -109.953125 C 14.226562 -110.617188 11.597656 -111.050781 8.359375 -111.25 L 8.359375 -117.03125 L 44.6875 -117.03125 L 82.984375 -27.203125 Z M 83.59375 -27.203125 "/></g></g></g><g fill="#000000" fill-opacity="1"><g transform="translate(559.209109, 146.999911)"><g><path d="M 100 -87.6875 C 100 -82.320312 99.140625 -77.507812 97.421875 -73.25 C 95.703125 -69 92.992188 -65.40625 89.296875 -62.46875 C 85.597656 -59.53125 80.785156 -57.25 74.859375 -55.625 C 68.929688 -54 61.707031 -53.1875 53.1875 -53.1875 L 39.515625 -53.1875 L 39.515625 -23.859375 C 39.515625 -20.109375 39.742188 -17.039062 40.203125 -14.65625 C 40.660156 -12.28125 41.625 -10.429688 43.09375 -9.109375 C 44.5625 -7.796875 46.6875 -6.910156 49.46875 -6.453125 C 52.257812 -6.003906 55.929688 -5.78125 60.484375 -5.78125 L 60.484375 0 L 6.84375 0 L 6.84375 -5.78125 C 10.382812 -5.875 13.242188 -6.175781 15.421875 -6.6875 C 17.597656 -7.195312 19.296875 -8.054688 20.515625 -9.265625 C 21.734375 -10.484375 22.546875 -12.207031 22.953125 -14.4375 C 23.359375 -16.664062 23.5625 -19.554688 23.5625 -23.109375 L 23.5625 -93.921875 C 23.5625 -97.472656 23.382812 -100.335938 23.03125 -102.515625 C 22.675781 -104.691406 21.960938 -106.410156 20.890625 -107.671875 C 19.828125 -108.941406 18.28125 -109.804688 16.25 -110.265625 C 14.226562 -110.722656 11.597656 -111.050781 8.359375 -111.25 L 8.359375 -117.03125 L 56.078125 -117.03125 C 70.066406 -117.03125 80.882812 -114.445312 88.53125 -109.28125 C 96.175781 -104.113281 100 -96.914062 100 -87.6875 Z M 39.515625 -60.796875 L 50.3125 -60.796875 C 60.4375 -60.796875 67.957031 -62.742188 72.875 -66.640625 C 77.789062 -70.546875 80.25 -76.957031 80.25 -85.875 C 80.25 -94.488281 78.296875 -100.644531 74.390625 -104.34375 C 70.492188 -108.039062 64.390625 -109.890625 56.078125 -109.890625 L 42.09375 -109.890625 C 40.375 -109.890625 39.515625 -109.023438 39.515625 -107.296875 Z M 39.515625 -60.796875 "/></g></g></g><g fill="#000000" fill-opacity="1"><g transform="translate(663.611764, 146.999911)"><g><path d="M 71.890625 -118.546875 C 80.804688 -118.546875 89.113281 -116.972656 96.8125 -113.828125 C 104.507812 -110.691406 111.195312 -106.382812 116.875 -100.90625 C 122.550781 -95.4375 127.007812 -89.003906 130.25 -81.609375 C 133.488281 -74.210938 135.109375 -66.210938 135.109375 -57.609375 C 135.109375 -49.398438 133.460938 -41.695312 130.171875 -34.5 C 126.878906 -27.300781 122.394531 -21.039062 116.71875 -15.71875 C 111.050781 -10.40625 104.363281 -6.203125 96.65625 -3.109375 C 88.957031 -0.0234375 80.703125 1.515625 71.890625 1.515625 C 63.078125 1.515625 54.816406 -0.0234375 47.109375 -3.109375 C 39.410156 -6.203125 32.722656 -10.40625 27.046875 -15.71875 C 21.378906 -21.039062 16.894531 -27.300781 13.59375 -34.5 C 10.300781 -41.695312 8.65625 -49.398438 8.65625 -57.609375 C 8.65625 -66.210938 10.273438 -74.210938 13.515625 -81.609375 C 16.765625 -89.003906 21.222656 -95.4375 26.890625 -100.90625 C 32.566406 -106.382812 39.253906 -110.691406 46.953125 -113.828125 C 54.660156 -116.972656 62.972656 -118.546875 71.890625 -118.546875 Z M 71.890625 -6.84375 C 78.578125 -6.84375 84.578125 -8.003906 89.890625 -10.328125 C 95.210938 -12.660156 99.773438 -16.003906 103.578125 -20.359375 C 107.378906 -24.722656 110.289062 -30.019531 112.3125 -36.25 C 114.34375 -42.476562 115.359375 -49.441406 115.359375 -57.140625 C 115.359375 -65.253906 114.34375 -72.578125 112.3125 -79.109375 C 110.289062 -85.640625 107.40625 -91.207031 103.65625 -95.8125 C 99.90625 -100.425781 95.34375 -103.972656 89.96875 -106.453125 C 84.601562 -108.941406 78.578125 -110.1875 71.890625 -110.1875 C 65.203125 -110.1875 59.171875 -108.941406 53.796875 -106.453125 C 48.429688 -103.972656 43.875 -100.425781 40.125 -95.8125 C 36.375 -91.207031 33.484375 -85.640625 31.453125 -79.109375 C 29.429688 -72.578125 28.421875 -65.253906 28.421875 -57.140625 C 28.421875 -49.441406 29.429688 -42.476562 31.453125 -36.25 C 33.484375 -30.019531 36.375 -24.722656 40.125 -20.359375 C 43.875 -16.003906 48.429688 -12.660156 53.796875 -10.328125 C 59.171875 -8.003906 65.203125 -6.84375 71.890625 -6.84375 Z M 71.890625 -6.84375 "/></g></g></g><g fill="#000000" fill-opacity="1"><g transform="translate(807.374446, 146.999911)"><g><path d="M 8.8125 -35.71875 L 14.4375 -35.71875 C 15.144531 -31.15625 16.488281 -27.050781 18.46875 -23.40625 C 20.445312 -19.757812 22.925781 -16.664062 25.90625 -14.125 C 28.894531 -11.59375 32.335938 -9.644531 36.234375 -8.28125 C 40.140625 -6.914062 44.375 -6.234375 48.9375 -6.234375 C 56.4375 -6.234375 62.363281 -8.003906 66.71875 -11.546875 C 71.070312 -15.097656 73.25 -19.910156 73.25 -25.984375 C 73.25 -28.515625 72.816406 -30.84375 71.953125 -32.96875 C 71.097656 -35.101562 69.65625 -37.15625 67.625 -39.125 C 65.601562 -41.101562 62.894531 -43.054688 59.5 -44.984375 C 56.101562 -46.910156 51.820312 -48.988281 46.65625 -51.21875 C 40.375 -53.957031 35.101562 -56.59375 30.84375 -59.125 C 26.59375 -61.65625 23.203125 -64.285156 20.671875 -67.015625 C 18.140625 -69.753906 16.335938 -72.671875 15.265625 -75.765625 C 14.203125 -78.859375 13.671875 -82.378906 13.671875 -86.328125 C 13.671875 -90.984375 14.503906 -95.285156 16.171875 -99.234375 C 17.847656 -103.191406 20.207031 -106.613281 23.25 -109.5 C 26.289062 -112.394531 29.890625 -114.625 34.046875 -116.1875 C 38.203125 -117.757812 42.757812 -118.546875 47.71875 -118.546875 C 52.175781 -118.546875 56.332031 -117.835938 60.1875 -116.421875 C 64.039062 -115.003906 67.941406 -112.722656 71.890625 -109.578125 L 75.84375 -116.421875 L 79.328125 -116.421875 L 81 -86.171875 L 75.390625 -86.171875 C 72.953125 -94.484375 69.425781 -100.664062 64.8125 -104.71875 C 60.207031 -108.769531 54.660156 -110.796875 48.171875 -110.796875 C 41.992188 -110.796875 37.082031 -109.273438 33.4375 -106.234375 C 29.789062 -103.191406 27.96875 -99.085938 27.96875 -93.921875 C 27.96875 -91.492188 28.367188 -89.289062 29.171875 -87.3125 C 29.984375 -85.332031 31.300781 -83.457031 33.125 -81.6875 C 34.957031 -79.914062 37.34375 -78.144531 40.28125 -76.375 C 43.21875 -74.601562 46.863281 -72.753906 51.21875 -70.828125 C 58.71875 -67.484375 64.945312 -64.363281 69.90625 -61.46875 C 74.875 -58.582031 78.828125 -55.695312 81.765625 -52.8125 C 84.703125 -49.925781 86.78125 -46.882812 88 -43.6875 C 89.21875 -40.5 89.828125 -36.929688 89.828125 -32.984375 C 89.828125 -27.910156 88.8125 -23.242188 86.78125 -18.984375 C 84.757812 -14.734375 81.921875 -11.085938 78.265625 -8.046875 C 74.617188 -5.015625 70.265625 -2.660156 65.203125 -0.984375 C 60.140625 0.679688 54.566406 1.515625 48.484375 1.515625 C 42.703125 1.515625 37.503906 0.707031 32.890625 -0.90625 C 28.285156 -2.53125 23.601562 -5.269531 18.84375 -9.125 L 14.59375 -1.671875 L 11.09375 -1.671875 Z M 8.8125 -35.71875 "/></g></g></g></g></g></svg>